REM DIRINDEX 1\2,1\3,1\4,1\5
REM DIRNAME folder01,folder02,folder03,folder04,folder05
TITLE ""
FILE "1Q_t_1267-1276.mp3" MP3
  TRACK 01 AUDIO
    TITLE "3:cjc004_4706"
    INDEX 01 00:00:00
  TRACK 02 AUDIO
    TITLE "0:"
    INDEX 01 00:00:64
  TRACK 03 AUDIO
    TITLE "4:cjc004_4707"
    INDEX 01 00:01:19
  TRACK 04 AUDIO
    TITLE "0:"
    INDEX 01 00:02:45
  TRACK 05 AUDIO
    TITLE "5:cjc004_4708"
    INDEX 01 00:02:71
  TRACK 06 AUDIO
    TITLE "0:"
    INDEX 01 00:08:34
  TRACK 07 AUDIO
    TITLE "3:cjc004_4709"
    INDEX 01 00:09:10
  TRACK 08 AUDIO
    TITLE "0:"
    INDEX 01 00:10:33
  TRACK 09 AUDIO
    TITLE "4:cjc004_4710"
    INDEX 01 00:10:61
  TRACK 10 AUDIO
    TITLE "0:"
    INDEX 01 00:12:03
  TRACK 11 AUDIO
    TITLE "5:cjc004_4711"
    INDEX 01 00:12:20
  TRACK 12 AUDIO
    TITLE "0:"
    INDEX 01 00:18:52
  TRACK 13 AUDIO
    TITLE "3:cjc004_4712"
    INDEX 01 00:19:32
  TRACK 14 AUDIO
    TITLE "0:"
    INDEX 01 00:20:39
  TRACK 15 AUDIO
    TITLE "4:cjc004_4713"
    INDEX 01 00:20:69
  TRACK 16 AUDIO
    TITLE "0:"
    INDEX 01 00:22:11
  TRACK 17 AUDIO
    TITLE "5:cjc004_4714"
    INDEX 01 00:22:38
  TRACK 18 AUDIO
    TITLE "0:"
    INDEX 01 00:26:34
  TRACK 19 AUDIO
    TITLE "3:cjc004_4715"
    INDEX 01 00:27:16
  TRACK 20 AUDIO
    TITLE "0:"
    INDEX 01 00:28:21
  TRACK 21 AUDIO
    TITLE "4:cjc004_4716"
    INDEX 01 00:28:49
  TRACK 22 AUDIO
    TITLE "0:"
    INDEX 01 00:30:18
  TRACK 23 AUDIO
    TITLE "5:cjc004_4717"
    INDEX 01 00:30:40
  TRACK 24 AUDIO
    TITLE "0:"
    INDEX 01 00:34:61
  TRACK 25 AUDIO
    TITLE "3:cjc004_4718"
    INDEX 01 00:35:37
  TRACK 26 AUDIO
    TITLE "0:"
    INDEX 01 00:36:54
  TRACK 27 AUDIO
    TITLE "4:cjc004_4719"
    INDEX 01 00:37:05
  TRACK 28 AUDIO
    TITLE "0:"
    INDEX 01 00:38:12
  TRACK 29 AUDIO
    TITLE "5:cjc004_4720"
    INDEX 01 00:38:31
  TRACK 30 AUDIO
    TITLE "0:"
    INDEX 01 00:43:23
  TRACK 31 AUDIO
    TITLE "3:cjc004_4721"
    INDEX 01 00:44:01
  TRACK 32 AUDIO
    TITLE "0:"
    INDEX 01 00:45:14
  TRACK 33 AUDIO
    TITLE "4:cjc004_4722"
    INDEX 01 00:45:39
  TRACK 34 AUDIO
    TITLE "0:"
    INDEX 01 00:47:28
  TRACK 35 AUDIO
    TITLE "5:cjc004_4723"
    INDEX 01 00:47:52
  TRACK 36 AUDIO
    TITLE "0:"
    INDEX 01 00:52:12
  TRACK 37 AUDIO
    TITLE "3:cjc004_4724"
    INDEX 01 00:52:63
  TRACK 38 AUDIO
    TITLE "0:"
    INDEX 01 00:54:09
  TRACK 39 AUDIO
    TITLE "4:cjc004_4725"
    INDEX 01 00:54:32
  TRACK 40 AUDIO
    TITLE "0:"
    INDEX 01 00:55:65
  TRACK 41 AUDIO
    TITLE "5:cjc004_4726"
    INDEX 01 00:56:14
  TRACK 42 AUDIO
    TITLE "0:"
    INDEX 01 01:01:05
  TRACK 43 AUDIO
    TITLE "3:cjc004_4727"
    INDEX 01 01:01:64
  TRACK 44 AUDIO
    TITLE "0:"
    INDEX 01 01:02:73
  TRACK 45 AUDIO
    TITLE "4:cjc004_4728"
    INDEX 01 01:03:24
  TRACK 46 AUDIO
    TITLE "0:"
    INDEX 01 01:04:56
  TRACK 47 AUDIO
    TITLE "5:cjc004_4729"
    INDEX 01 01:05:05
  TRACK 48 AUDIO
    TITLE "0:"
    INDEX 01 01:08:72
  TRACK 49 AUDIO
    TITLE "3:cjc004_4730"
    INDEX 01 01:09:52
  TRACK 50 AUDIO
    TITLE "0:"
    INDEX 01 01:10:57
  TRACK 51 AUDIO
    TITLE "4:cjc004_4731"
    INDEX 01 01:11:05
  TRACK 52 AUDIO
    TITLE "0:"
    INDEX 01 01:12:24
  TRACK 53 AUDIO
    TITLE "5:cjc004_4732"
    INDEX 01 01:12:50
  TRACK 54 AUDIO
    TITLE "0:"
    INDEX 01 01:17:65
  TRACK 55 AUDIO
    TITLE "3:cjc004_4733"
    INDEX 01 01:18:54
  TRACK 56 AUDIO
    TITLE "0:"
    INDEX 01 01:19:68
  TRACK 57 AUDIO
    TITLE "4:cjc004_4734"
    INDEX 01 01:20:22
  TRACK 58 AUDIO
    TITLE "0:"
    INDEX 01 01:21:63
  TRACK 59 AUDIO
    TITLE "5:cjc004_4735"
    INDEX 01 01:22:07
  TRACK 60 AUDIO
    TITLE "0:"
    INDEX 01 01:25:47
